<?xml version="1.0" standalone="no"?>
<!DOCTYPE svg PUBLIC "-//W3C//DTD SVG 20010904//EN"
 "http://www.w3.org/TR/2001/REC-SVG-20010904/DTD/svg10.dtd">
<svg version="1.0" xmlns="http://www.w3.org/2000/svg"
 width="1024.000000pt" height="1024.000000pt" viewBox="0 0 1024.000000 1024.000000"
 preserveAspectRatio="xMidYMid meet">

<g transform="translate(0.000000,1024.000000) scale(0.100000,-0.100000)"
fill="#000000" stroke="none">
<path d="M0 5120 l0 -5120 5120 0 5120 0 0 5120 0 5120 -5120 0 -5120 0 0
-5120z m5365 3115 c214 -9 476 -26 545 -36 36 -5 112 -16 170 -24 280 -36 356
-49 504 -87 89 -22 179 -49 201 -58 22 -10 60 -25 85 -35 62 -23 201 -98 285
-154 79 -52 236 -199 294 -275 145 -189 254 -435 339 -766 46 -178 64 -310 92
-680 37 -501 37 -754 -1 -1435 -12 -210 -59 -559 -89 -660 -41 -138 -140 -488
-152 -538 -5 -22 -15 -46 -23 -54 -8 -8 -15 -21 -15 -29 0 -8 -11 -32 -25 -52
-14 -20 -25 -42 -25 -49 0 -20 -47 -101 -107 -186 -102 -142 -233 -257 -285
-252 -13 1 -33 3 -45 4 -16 1 -20 6 -16 20 3 10 0 22 -6 25 -6 4 -11 0 -11
-11 -1 -16 -2 -16 -13 -2 -7 9 -18 14 -26 11 -8 -3 -11 0 -7 6 3 6 -1 9 -11 7
-10 -1 -24 2 -30 8 -7 5 -13 6 -13 1 0 -13 -103 -12 -112 1 -5 6 -8 6 -8 -2 0
-12 -49 -11 -70 2 -6 4 -7 -1 -3 -12 6 -16 5 -16 -10 -4 -9 7 -17 9 -17 4 0
-5 -20 -8 -45 -8 -24 1 -42 -2 -39 -7 3 -4 -3 -9 -13 -10 -19 -1 -35 -4 -43
-8 -3 -1 -16 -3 -30 -4 -14 -2 -32 -5 -40 -8 -8 -4 -23 -7 -32 -7 -45 -3 -58
-6 -58 -12 0 -4 -8 -6 -17 -4 -10 1 -32 -3 -50 -10 -17 -7 -33 -11 -35 -9 -3
2 -29 -1 -59 -6 -50 -9 -94 -15 -184 -24 -16 -2 -30 -4 -30 -6 0 -1 -22 -3
-50 -5 -27 -1 -50 -3 -50 -4 0 -3 -110 -12 -137 -12 -107 0 -138 -2 -138 -9 0
-20 -1102 -17 -1269 4 -24 3 -64 8 -90 11 -25 3 -62 7 -81 10 -19 3 -48 8 -65
10 -16 3 -50 9 -75 14 -25 5 -61 12 -80 15 -19 3 -55 10 -80 16 -25 7 -56 14
-70 16 -14 3 -50 12 -80 21 -73 22 -71 21 -105 28 -16 3 -32 10 -35 15 -3 5
-19 12 -35 16 -17 4 -36 11 -42 17 -7 5 -13 6 -13 2 0 -4 -11 0 -25 9 -13 9
-31 16 -40 16 -8 0 -15 5 -15 10 0 6 -6 10 -12 9 -20 -3 -78 13 -84 22 -3 5
-10 7 -15 3 -5 -3 -16 -1 -24 6 -10 8 -19 8 -34 1 -12 -7 -22 -7 -26 -1 -3 5
-13 6 -22 3 -10 -4 -14 -2 -10 4 5 8 -5 8 -30 2 -25 -5 -42 -4 -51 4 -8 6 -19
12 -26 13 -27 4 -41 9 -46 16 -3 3 -12 8 -20 10 -8 2 -21 9 -28 16 -8 7 -19
11 -26 9 -6 -2 -19 5 -29 16 -9 11 -20 18 -23 14 -7 -7 -21 4 -69 51 -18 17
-36 32 -39 32 -8 0 -98 96 -154 165 -42 52 -142 207 -142 220 0 3 -14 33 -31
67 -51 104 -152 374 -164 438 -3 14 -8 36 -12 50 -7 29 -7 29 -27 100 -30 107
-86 519 -106 775 -22 293 -39 784 -35 1035 7 439 49 710 156 1016 50 145 182
381 257 459 15 17 50 55 77 85 58 66 163 160 225 203 58 39 251 139 315 163
28 10 52 21 55 25 9 12 206 79 281 95 41 8 108 19 149 24 41 4 129 17 195 28
187 33 357 53 510 62 134 8 646 5 920 -5z"/>
<path d="M4777 7629 c-233 -34 -356 -72 -557 -172 -428 -214 -729 -554 -904
-1025 -45 -118 -95 -297 -96 -337 0 -15 -17 -27 -68 -50 -226 -99 -380 -296
-433 -555 -37 -184 -11 -386 73 -558 44 -90 137 -213 211 -277 87 -77 240
-154 304 -155 30 0 32 -3 54 -67 27 -83 168 -359 217 -428 20 -27 46 -66 59
-85 30 -44 141 -167 207 -230 292 -276 656 -440 1049 -472 136 -11 138 -12
144 -37 12 -53 53 -117 105 -169 109 -108 278 -154 448 -122 124 23 237 112
293 230 28 58 32 75 32 158 l1 93 123 83 c129 88 275 208 350 291 25 27 67 72
92 100 26 27 73 91 104 140 32 50 73 113 91 142 19 28 34 53 34 56 0 2 9 24
19 48 11 24 20 47 21 51 0 4 16 39 35 78 36 72 79 193 91 256 4 20 14 38 23
41 9 3 43 16 76 30 140 60 232 142 312 277 62 106 88 180 109 315 16 107 16
120 0 240 -9 69 -23 142 -30 161 -38 99 -54 130 -93 192 -80 122 -215 227
-359 278 -26 10 -32 18 -42 68 -21 102 -83 274 -142 397 -152 314 -366 558
-657 749 -87 57 -266 143 -384 184 -261 92 -616 123 -912 81z m548 -170 c221
-35 367 -83 543 -178 139 -75 164 -92 254 -172 197 -176 330 -345 419 -536 90
-193 129 -318 174 -566 28 -157 38 -297 39 -557 1 -300 -9 -439 -50 -670 -14
-78 -78 -294 -109 -365 -7 -16 -27 -63 -44 -104 -30 -69 -127 -226 -195 -316
-106 -138 -327 -330 -505 -436 l-44 -27 -64 44 c-76 52 -143 74 -245 81 -92 7
-161 -8 -243 -51 -69 -36 -174 -136 -194 -185 l-14 -33 -86 7 c-225 17 -419
66 -593 149 -78 37 -266 158 -308 197 -14 13 -51 47 -82 75 -70 64 -207 227
-263 314 -109 169 -197 382 -254 610 -83 338 -107 1048 -45 1360 53 267 115
431 233 615 165 256 397 467 658 598 176 89 399 149 611 166 131 11 249 5 407
-20z"/>
<path d="M5745 6086 c-5 -3 -22 -7 -36 -10 -22 -5 -160 -116 -144 -116 3 0 -7
-19 -23 -42 -89 -132 -127 -347 -98 -561 18 -128 39 -198 88 -289 55 -104 166
-198 256 -219 113 -26 255 94 331 279 87 212 78 492 -23 708 -40 85 -134 190
-202 223 -43 22 -124 36 -149 27z"/>
<path d="M4325 6031 c-125 -31 -239 -176 -292 -371 -26 -93 -25 -354 0 -463
50 -213 211 -397 347 -397 135 0 241 90 311 267 47 115 62 222 56 383 -5 145
-20 208 -78 337 -43 96 -74 138 -143 190 -76 58 -127 72 -201 54z"/>
<path d="M5012 5331 c-67 -43 -95 -124 -67 -197 41 -108 161 -135 245 -56 97
93 38 257 -97 269 -36 3 -56 -1 -81 -16z"/>
</g>
</svg>
